<svg xmlns="http://www.w3.org/2000/svg" width="34" height="34" viewBox="0 0 34 34">
    <g id="Group_148" data-name="Group 148" transform="translate(-314 -3049)">
        <rect id="Rectangle_234" data-name="Rectangle 234" width="34" height="34" transform="translate(314 3049)" fill="rgba(255,255,255,0)"></rect>
        <path id="create-dashboard" d="M14.667,19.667h-10A1.667,1.667,0,0,0,3,21.333v10A1.667,1.667,0,0,0,4.667,33h10a1.667,1.667,0,0,0,1.667-1.667v-10A1.667,1.667,0,0,0,14.667,19.667ZM13,29.667H6.333V23H13ZM31.333,3h-10a1.667,1.667,0,0,0-1.667,1.667v10a1.667,1.667,0,0,0,1.667,1.667h10A1.667,1.667,0,0,0,33,14.667v-10A1.667,1.667,0,0,0,31.333,3ZM29.667,13H23V6.333h6.667Zm1.667,11.667H28V21.333a1.667,1.667,0,1,0-3.333,0v3.333H21.333a1.667,1.667,0,1,0,0,3.333h3.333v3.333a1.667,1.667,0,1,0,3.333,0V28h3.333a1.667,1.667,0,1,0,0-3.333ZM14.667,3h-10A1.667,1.667,0,0,0,3,4.667v10a1.667,1.667,0,0,0,1.667,1.667h10a1.667,1.667,0,0,0,1.667-1.667v-10A1.667,1.667,0,0,0,14.667,3ZM13,13H6.333V6.333H13Z" transform="translate(313 3048)" fill="#111"></path>
    </g>
</svg>