<svg xmlns="http://www.w3.org/2000/svg" width="24" height="24" viewBox="0 0 24 24"><g transform="translate(-177 -746)"><rect width="24" height="24" transform="translate(177 746)" fill="rgba(255,255,255,0)"/><path d="M6.013,0H2.976A2.986,2.986,0,0,0,0,3V6.06a2.986,2.986,0,0,0,2.976,3H6.013a2.986,2.986,0,0,0,2.976-3V3A2.986,2.986,0,0,0,6.013,0ZM2.976,1.4H6.013A1.59,1.59,0,0,1,7.594,3V6.06a1.591,1.591,0,0,1-1.58,1.6H2.976A1.591,1.591,0,0,1,1.4,6.06V3A1.59,1.59,0,0,1,2.976,1.4ZM21.025,0H17.986a2.986,2.986,0,0,0-2.976,3V6.06a2.986,2.986,0,0,0,2.976,3h3.039A2.986,2.986,0,0,0,24,6.06V3A2.985,2.985,0,0,0,21.025,0ZM17.986,1.4h3.039A1.59,1.59,0,0,1,22.6,3V6.06a1.591,1.591,0,0,1-1.58,1.6H17.986a1.591,1.591,0,0,1-1.58-1.6V3A1.59,1.59,0,0,1,17.986,1.4ZM2.976,14.945H6.013a2.986,2.986,0,0,1,2.976,3V21a2.986,2.986,0,0,1-2.976,3H2.976A2.986,2.986,0,0,1,0,21V17.941A2.986,2.986,0,0,1,2.976,14.945Zm3.038,1.4H2.976a1.591,1.591,0,0,0-1.58,1.6V21a1.59,1.59,0,0,0,1.58,1.6H6.013A1.59,1.59,0,0,0,7.594,21V17.941A1.591,1.591,0,0,0,6.013,16.34Zm15.012-1.4H17.986a2.986,2.986,0,0,0-2.976,3V21a2.986,2.986,0,0,0,2.976,3h3.039A2.985,2.985,0,0,0,24,21V17.941A2.986,2.986,0,0,0,21.025,14.945Zm-3.039,1.4h3.039a1.59,1.59,0,0,1,1.58,1.6V21a1.59,1.59,0,0,1-1.58,1.6H17.986a1.59,1.59,0,0,1-1.58-1.6V17.941A1.591,1.591,0,0,1,17.986,16.34Z" transform="translate(177 746)" fill="#fff" fill-rule="evenodd"/></g></svg>