<svg xmlns="http://www.w3.org/2000/svg" width="18" height="18" viewBox="0 0 18 18">
  <g id="Group_203" data-name="Group 203" transform="translate(1368 99) rotate(180)">
    <rect id="Rectangle_256" data-name="Rectangle 256" width="18" height="18" transform="translate(1350 81)" fill="rgba(255,255,255,0)"/>
    <path id="Arrow_-_Left_2" data-name="Arrow - Left 2" d="M15.281,4.211a.7.7,0,0,1,.072.938l-.072.081L9.3,11l5.98,5.771a.7.7,0,0,1,.072.938l-.072.081a.767.767,0,0,1-.972.07l-.084-.07-6.507-6.28a.7.7,0,0,1-.072-.938l.072-.081,6.507-6.28A.766.766,0,0,1,15.281,4.211Z" transform="translate(1347.5 79)" fill="#fff"/>
  </g>
</svg>
