<svg id="Component_3_58" data-name="Component 3 – 58" xmlns="http://www.w3.org/2000/svg" width="24" height="24" viewBox="0 0 24 24">
  <rect id="Rectangle_12" data-name="Rectangle 12" width="24" height="24" fill="rgba(255,255,255,0)"/>
  <path id="Bag" d="M16.88,6.382a4.93,4.93,0,0,0-9.8,0h0c-1.781,0-3.278,1.3-3.7,3.56l-.761,5.87C1.972,20.111,3.993,22,7.949,22h8.1c3.658,0,5.845-2.13,5.4-5.952l-.785-6.067c-.5-2.287-1.962-3.6-3.7-3.6Zm-1.466,0a3.475,3.475,0,0,0-6.868,0ZM7.079,7.83h9.873c1.022,0,1.92.808,2.273,2.4L19.968,16c.442,3.068-1.031,4.555-3.922,4.555h-8.1c-3.131,0-4.395-1.181-3.889-4.54l.757-5.845C5.106,8.619,6.014,7.83,7.079,7.83Zm7.787,2.687a.724.724,0,0,1,.1,1.441l-.1.007h-.044a.724.724,0,0,1-.1-1.441l.1-.007Zm-4.928.724a.726.726,0,0,0-.727-.724H9.165l-.1.007a.724.724,0,0,0,.1,1.441H9.21l.1-.007A.725.725,0,0,0,9.937,11.24Z" fill="#111" fill-rule="evenodd"/>
</svg>
