<svg id="Component_9_3" data-name="Component 9 – 3" xmlns="http://www.w3.org/2000/svg" width="24" height="24" viewBox="0 0 24 24">
  <rect id="Rectangle_233" data-name="Rectangle 233" width="24" height="24" fill="rgba(255,255,255,0)"/>
  <path id="Call" d="M6.47,2,6.5,2a2.26,2.26,0,0,1,1.394.71A14.991,14.991,0,0,1,10.5,6.346a2.418,2.418,0,0,1-.461,1.911l-.109.193c-.207.378-.239.535-.175.713a8.884,8.884,0,0,0,5.052,5.068c.226.082.4.035.874-.239l.249-.141a2.234,2.234,0,0,1,1.723-.354,15.028,15.028,0,0,1,3.631,2.612A2.273,2.273,0,0,1,22,17.54c.048,1.357-1.608,3.268-2.618,3.843a4.052,4.052,0,0,1-4.242.047C10.864,19.651,4.325,13.154,2.582,8.884l-.1-.239a3.919,3.919,0,0,1,.111-3.978C3.281,3.522,5.146,1.94,6.47,2ZM6.39,3.464l-.088,0a5.354,5.354,0,0,0-2.5,2.01L3.727,5.6a2.853,2.853,0,0,0,.2,2.71l.1.244c1.756,3.94,7.834,9.934,11.7,11.543l.213.095a2.577,2.577,0,0,0,2.65-.033l.051-.033a7.623,7.623,0,0,0,1.078-1.026,2.858,2.858,0,0,0,.819-1.468.922.922,0,0,0-.3-.493,19.711,19.711,0,0,0-2.883-2.2c-.218-.045-.4.016-.884.3l-.246.138a2.1,2.1,0,0,1-1.943.232A10.376,10.376,0,0,1,8.393,9.69a2.225,2.225,0,0,1,.346-2.1l.112-.2c.214-.387.26-.551.219-.746a19.644,19.644,0,0,0-2.2-2.884.919.919,0,0,0-.493-.3Z" fill="#fff" fill-rule="evenodd"/>
</svg>
