<svg xmlns="http://www.w3.org/2000/svg" width="815" height="815" viewBox="0 0 815 815">
  <path id="Subtraction_5" data-name="Subtraction 5" d="M-3573.62,876.148a414,414,0,0,1-41.664-2.1,408.565,408.565,0,0,1-40.461-6.175c-13.129-2.687-26.268-6.065-39.052-10.042-12.641-3.932-25.238-8.542-37.439-13.7a407.521,407.521,0,0,1-69.22-37.571,410.424,410.424,0,0,1-60.309-49.759,410.426,410.426,0,0,1-49.759-60.309,407.525,407.525,0,0,1-37.571-69.22c-5.161-12.2-9.771-24.8-13.7-37.439-3.976-12.784-7.355-25.924-10.042-39.052a408.534,408.534,0,0,1-6.175-40.461,414.025,414.025,0,0,1-2.1-41.664,408,408,0,0,1,16.572-115.414,405.431,405.431,0,0,1,46.564-102.559,68.074,68.074,0,0,1,8.625-5.862c-.86,1.018-1.813,2-2.822,3.043l-.005.005a44.829,44.829,0,0,0-4.583,5.254,4.881,4.881,0,0,0,1.826.453,7.7,7.7,0,0,1,.95.143,64.1,64.1,0,0,1-4.62,6.936c-2.659,3.64-5.407,7.4-6.74,11.869.095,0,.2.008.3.008a6.457,6.457,0,0,0,1.621-.224l.089-.022a5.331,5.331,0,0,1,1.315-.2,4.375,4.375,0,0,1,1.41.258,11.635,11.635,0,0,1-3.119,3.961c-.256.241-.546.515-.838.8-.489.78-1,1.573-1.45,2.272-2.191,3.4-4.259,6.607-5.439,10.358a14.793,14.793,0,0,0,3.115-.781,12.856,12.856,0,0,1,3.679-.828,2.955,2.955,0,0,1,1.862.566c-4.032,2.662-5.643,7.339-7.2,11.862a35.781,35.781,0,0,1-2.731,6.56c-.151.01-.247.453-.369,1.015a6.889,6.889,0,0,1-.584,1.857,3.34,3.34,0,0,0,.917.125,8.452,8.452,0,0,0,3.147-.885l.076-.032a9.008,9.008,0,0,1,3.373-.916,4.051,4.051,0,0,1,1.132.157,8.223,8.223,0,0,1-1.813,3.755,9.611,9.611,0,0,0-1.973,4.024A39.309,39.309,0,0,1-3930.9,328.5c.755-.2,1.563-.412,2.345-.615,1.638-.424,3.332-.864,4.8-1.3a.314.314,0,0,0,.238.124.51.51,0,0,0,.167-.037l.059-.019c-2.411,3.313-2.881,7.073-3.336,10.709a27.088,27.088,0,0,1-2.222,9.03c.413.036.9.074,1.417.074a6.048,6.048,0,0,0,3.365-.862l1.743-.577a19.86,19.86,0,0,1-.77,3.866,13.542,13.542,0,0,0-.687,5.457c-.148.593-.334,1.2-.514,1.778l-.005.016a11.14,11.14,0,0,0-.716,5.747,6.539,6.539,0,0,0,2.008-.774,5.14,5.14,0,0,1,2.525-.789,4.268,4.268,0,0,1,.481.028,20.127,20.127,0,0,0-1.06,6.848,39.274,39.274,0,0,0,.771,7.076,4.722,4.722,0,0,0,2.484-1.056,5.431,5.431,0,0,1,2.608-1.139c-.2,4.448-.442,9.981.608,14.929a58.347,58.347,0,0,1,.021,5.9c-.038,1.128-.077,2.294-.067,3.648a78.23,78.23,0,0,1-1.307,9.411c-.175,1-.279,1.913-.38,2.791a27,27,0,0,1-.854,4.75.647.647,0,0,0,.327.088c.585,0,1.244-.728,1.825-1.37a6.909,6.909,0,0,1,.722-.732c1.4-2.134,2.54-3.723,3.549-5.126l0-.005a74.544,74.544,0,0,0,6.792-11.041c.451-.873.81-1.779,1.157-2.655a17.18,17.18,0,0,1,1.6-3.349,2.671,2.671,0,0,0,1.528,1.889c.3-.829.619-1.675.928-2.494l.018-.049c1.435-3.8,2.918-7.732,3.193-11.776.04,0,.08,0,.118,0a1.75,1.75,0,0,1,1.21.575,2.338,2.338,0,0,0,1.1.629,36.779,36.779,0,0,0,1.907-7.442,40.06,40.06,0,0,0,.366-7.652c.061-.006.116-.008.166-.008.653,0,.943.408,1.25.841a1.853,1.853,0,0,0,1.366.976,46.982,46.982,0,0,0,2.628-14.751,27.5,27.5,0,0,0-.461-5.739l.036,0h.055a4.387,4.387,0,0,1,1.215.238l.012,0a4.466,4.466,0,0,0,1.257.242,2.024,2.024,0,0,0,.882-.2c.143-1.592.32-3.161.491-4.678v-.008a69.531,69.531,0,0,0,.559-15.09c-.046-1.557-.074-3.1-.1-4.583v-.007a104.975,104.975,0,0,0-1.052-15.552c.038-.006,3.87-.666,6.012-2.568a49.274,49.274,0,0,0-1.225,8.048,48.247,48.247,0,0,0,.955,5.248,25.454,25.454,0,0,1,.855,5.9,8.437,8.437,0,0,1-1.981,5.363,6.877,6.877,0,0,0,.688.036,5.511,5.511,0,0,0,3.173-1.058,7.794,7.794,0,0,1,1.64-.834,15.462,15.462,0,0,1,.015,3.612,21.046,21.046,0,0,0,.034,4.671c.209,1.749.357,3.411.5,5.019a66.04,66.04,0,0,0,1.052,8.156,4.838,4.838,0,0,1,2.908-1.532c.26-.069.5-.134.711-.2a41.121,41.121,0,0,0,.584,10.915c.122.852.248,1.732.361,2.613l.979-1.347a20.469,20.469,0,0,0-.057,3.626,13.8,13.8,0,0,1-.591,5.863,20.833,20.833,0,0,0,3.256-2.251,14.82,14.82,0,0,1,5.386-3.127c-1.433,2.559-1.809,5.842-1.118,9.759a43.673,43.673,0,0,0,3.4,10.176,4.1,4.1,0,0,1,.171,3.017l.358-.1-.89,3.109a20.169,20.169,0,0,0,4.567-2.442l.006,0a32.281,32.281,0,0,1,3.025-1.822,13.539,13.539,0,0,0-1.16,6.857,43.592,43.592,0,0,0,1.275,7.037c.337,1.419.686,2.887.938,4.328a2.05,2.05,0,0,0-.2,1.1,3.2,3.2,0,0,1-.018.492c2.264-.987,4.832-2.1,6.669-4.4l1.071-.287c-.672,3.285.174,6.722.991,10.046a30.186,30.186,0,0,1,1.182,7.111,19.577,19.577,0,0,0,3.558-2.363,22.2,22.2,0,0,1,3.2-2.191,32.52,32.52,0,0,0,2.081,9.4,20.617,20.617,0,0,0,5.162,7.862,12.064,12.064,0,0,0,2.615-2.457c.366-.416.744-.846,1.12-1.225.258.474.522.965.778,1.441l.019.035c2.2,4.079,4.464,8.294,7.632,11.644a8.186,8.186,0,0,1,2.606-2.421,59.729,59.729,0,0,1,6.25,11.661l1.564-1.312a15.356,15.356,0,0,0,2.119,4.1,19.452,19.452,0,0,1,1.816,3.206,2.3,2.3,0,0,0,.264-.243c.295-.3.7-.7,1.053-.7.254,0,.447.21.576.623,3.631,6.766,8.556,12.734,13.319,18.506,2.418,2.93,4.917,5.959,7.208,9.047a11.218,11.218,0,0,0,.863-6.924,37.162,37.162,0,0,0-2.149-6.951l0-.006c-1.114-2.922-2.265-5.941-2.414-8.99q-.119-.473-.234-.943l-.033-.133c-.869-3.52-1.69-6.846-3.933-9.6a2.18,2.18,0,0,1,.749-.212c.476-.077.926-.15.984-.7-.789-2.229-1.432-4.57-2.054-6.835a76.3,76.3,0,0,0-2.924-9.124l2.723.163c-.231-1.014-.434-2.058-.629-3.067l0-.01c-.746-3.848-1.518-7.828-4.094-11.226l3.081.067c-.2-1.139-.375-2.314-.548-3.451-.689-4.532-1.4-9.219-3.291-13.26.557.047,1.154.148,1.731.245a15.117,15.117,0,0,0,2.41.278,4.65,4.65,0,0,0,.831-.068,52.484,52.484,0,0,1-1.749-4.986c-1.13-3.591-2.3-7.3-4.725-10.125a4.356,4.356,0,0,1,2.014-.608,5.863,5.863,0,0,0,2.359-.691,30.125,30.125,0,0,1-3.579-6.846c-1.445-3.44-2.94-7-5.916-9.307l-.16-.6a13.093,13.093,0,0,0,6.179-1.464c-.332-.711-.676-1.463-.98-2.127-2.808-6.135-5.712-12.479-11.456-16.428l-.16-.6,7.512-2.2c-2.987-3.817-7.506-9.55-12.246-15.223a2.628,2.628,0,0,0-.991-.551c-.611-.242-1.242-.492-1.369-1.114,1.214-1.161,3.147-1.531,5.017-1.89.56-.107,1.089-.208,1.6-.331-1.3-1.363-2.519-2.9-3.694-4.382-2.909-3.675-5.917-7.474-10.572-9.087a1.78,1.78,0,0,1,1.5-.673,7.915,7.915,0,0,1,2.259.5,12.686,12.686,0,0,0,1.269.361c-2.057-3.609-5.068-6.741-7.98-9.77l0,0c-1.687-1.755-3.431-3.569-4.966-5.453a2.509,2.509,0,0,1,.461-.043,3.094,3.094,0,0,1,1.806.647c-.05-.136-.1-.274-.152-.407l-.01-.027c-.662-1.763-1.288-3.428.219-5.069a58.492,58.492,0,0,0,5.5,8.569,79.373,79.373,0,0,1,4.516,6.678c.429.007.573.358.724.729.164.4.349.856.935.931-.1-1.583,1.054-3.129,2.075-4.493l.018-.024c.186-.249.361-.483.525-.713.677.443.811,1.319.951,2.248a4.34,4.34,0,0,0,.876,2.43c1.277,1.338,2.463,2.755,3.718,4.255a50.94,50.94,0,0,0,7.473,7.74,15.268,15.268,0,0,0,.564-2.088,7.2,7.2,0,0,1,1.581-3.719c.1.238.192.474.286.709a18.358,18.358,0,0,0,4.21,7.02,67.515,67.515,0,0,1,5.891,5.06c1.663,1.544,3.233,3,4.911,4.3a21.322,21.322,0,0,0,1.518-3.568l0-.006a21.455,21.455,0,0,1,1.082-2.675c.866,5.684,5.8,8.586,10.573,11.392a33.117,33.117,0,0,1,7.182,5.1,3.981,3.981,0,0,0,1.042-2.178,3.306,3.306,0,0,1,.922-1.921c1.819,4.348,6.063,6.86,10.168,9.289a47.119,47.119,0,0,1,5.387,3.516,13.245,13.245,0,0,0,.431-2.674v-.005a11.531,11.531,0,0,1,.676-3.424c.175.265.371.6.578.952l.005.009a14.823,14.823,0,0,0,2.146,3.031c2.135,2.134,4.734,3.147,7.487,4.221a31.5,31.5,0,0,1,5.349,2.485,8.16,8.16,0,0,0,.8-4.257V349.1a16.522,16.522,0,0,1,.152-2.436c.157.174.3.322.424.453a5.721,5.721,0,0,1,1,1.273,26.384,26.384,0,0,0,15.095,6.8,14.159,14.159,0,0,1,.21-6.118,19.72,19.72,0,0,0,5.952,3.772,60.051,60.051,0,0,0,6.732,2.254c1.363.4,2.772.808,4.14,1.271a11.276,11.276,0,0,1,.062-3.262V353.1a13.734,13.734,0,0,0,.137-2.657c5.006,2.122,10.25,2.831,15.322,3.516.9.122,1.835.248,2.759.381l.14-2.335c1.622,1.471,3.824,1.984,5.955,2.479a25.9,25.9,0,0,1,3.177.881c-.008-.5-.051-1-.091-1.485a9.749,9.749,0,0,1,.046-2.969,4.143,4.143,0,0,1,1.711.475,3.731,3.731,0,0,0,1.537.438,2.167,2.167,0,0,0,.37-.032c.14.4.666.41,1.274.425a3,3,0,0,1,1.61.333,3.083,3.083,0,0,1,1.221-.213,12.194,12.194,0,0,1,1.653.16,14.239,14.239,0,0,0,1.493.159l-.3-2.088h.015a6.629,6.629,0,0,1,2.367.588c.325.125.662.255,1,.358a5.107,5.107,0,0,0,1.237.144,12.762,12.762,0,0,0,3.138-.543l.01,0a12.689,12.689,0,0,1,3.117-.541,4.7,4.7,0,0,1,2.51.684l.365-1.5c2.173.2,4.6.3,7.427.3,2.4,0,4.8-.069,7.128-.135l.071,0c2.289-.065,4.656-.133,6.925-.133,2.318,0,4.308.072,6.082.219,1.72-.04,3.479-.04,5.179-.04,5.279,0,10.737,0,16.06-1.185l.154-.615c-3.707-2.465-7.667-3.371-11.5-4.248a37.42,37.42,0,0,1-10-3.33,68.738,68.738,0,0,1-9.256-4.23,59.351,59.351,0,0,0-10.749-4.7l.89-1.084a4.842,4.842,0,0,0-2.6-.765,14.566,14.566,0,0,1-2.168-.351c-1.351-.375-2.6-.649-3.8-.913-1.646-.362-3.2-.7-4.989-1.279l2.688-3.783a40.18,40.18,0,0,1-7.367-2.2,48.237,48.237,0,0,0-6.129-1.964,2.1,2.1,0,0,1-.4.047,1.314,1.314,0,0,0-1.04.375,18.48,18.48,0,0,1,2.158-2.439,17.965,17.965,0,0,0,2.633-3.094,31.262,31.262,0,0,0-13.812-3.579c-.772,0-1.546.038-2.3.113.333-.321.668-.648,1.024-.993l.058-.056c1.527-1.484,3.257-3.165,4.922-4.643a27.5,27.5,0,0,0-14.893-4.743c-.266,0-.533,0-.8.015l-2.044.228a8.835,8.835,0,0,1,3.064-2.963c1.4-.987,2.844-2.007,3.463-3.635-3.066-1.851-9.843-2.776-11.847-3.015-.49-.029-.969-.083-1.476-.14a22.413,22.413,0,0,0-2.594-.184,14.589,14.589,0,0,0-3.85.533l.531-.7.554-.5a25.977,25.977,0,0,0,5.168-5.708c-4.608-1.78-9.433-2.109-14.1-2.427-.594-.04-1.33-.091-2.03-.143l-.237,0a19.816,19.816,0,0,0-2.78.168,13.981,13.981,0,0,1,1.93-2.7,11.526,11.526,0,0,0,2.631-4.324,56.422,56.422,0,0,1-7.169-1.273,43.148,43.148,0,0,0-9.3-1.368,19.411,19.411,0,0,0-3.181.252c.229-.292.479-.6.722-.9,1.451-1.786,3.256-4.009,3.7-6.412-7.611-1.035-14.072-1.7-19.754-2.044-.057,0-.116-.005-.175-.005a4.4,4.4,0,0,0-2.751,1.235,42,42,0,0,0,4.774-8.617,20.7,20.7,0,0,0-6.822-.941c-1.176,0-2.377.05-3.539.1h-.018c-1.172.049-2.382.1-3.568.1l-.42,0-.1.009a33.4,33.4,0,0,0-7.591,1.286l4.48-8.284h-.265c-2.542,0-5.1-.1-7.577-.19s-5.05-.189-7.57-.189a67.613,67.613,0,0,0-7,.323l-1.452.772a17.849,17.849,0,0,1,2.048-3.137,17.2,17.2,0,0,0,2.885-4.885l-.741-.126a83.087,83.087,0,0,0-13.724-1.532,29.826,29.826,0,0,0-8.7,1.165c.248-.971.594-1.952.929-2.9a17.2,17.2,0,0,0,1.292-5.478,33.126,33.126,0,0,1-8.875.979c-.882,0-1.775-.014-2.637-.027h-.019c-.871-.014-1.772-.028-2.663-.028a34.991,34.991,0,0,0-9.156.995,5.82,5.82,0,0,1,1.217-3.405,7.051,7.051,0,0,0,1.233-2.93,14.126,14.126,0,0,1-5.407.709l-.763,0h-.277c-.238-.724-.551-1.442-.854-2.136a13.149,13.149,0,0,1-1.3-4.241,10.724,10.724,0,0,0,6.034,4.012,31.1,31.1,0,0,0,7.208.713c3.242.071,6.594.145,9.543,1.488a4.438,4.438,0,0,0-.277-3.176,5.472,5.472,0,0,1-.444-2.376,5.42,5.42,0,0,0,2.677,2.49,13.856,13.856,0,0,0,3.664,1.172,28.012,28.012,0,0,0,6.828,1.18,35.31,35.31,0,0,1,5.164.712l-1.811-5.725.142,0a1.641,1.641,0,0,0,.414-.042l.041-.01a.775.775,0,0,1,.217-.032,1.511,1.511,0,0,1,.212.018,52.243,52.243,0,0,0,17.13,2.494c.475,0,.968,0,1.465-.013-.013-.073-.028-.177-.046-.308a15.647,15.647,0,0,0-1.99-6.1c.788.128,1.545.272,2.277.411h.008a32.58,32.58,0,0,0,5.226.7,71.432,71.432,0,0,0,7.2.466,14.944,14.944,0,0,0,5.7-.82,16.426,16.426,0,0,0-2.9-6.856,15.609,15.609,0,0,0,3.892.888,57.965,57.965,0,0,0,6.172.29c3.057,0,6.1-.161,9.046-.316h.006l.035,0c.931-.049,1.81-.1,2.675-.136a5.536,5.536,0,0,0-1.119-5.1c3.309-.382,5.457-.559,7.026-.689a36.1,36.1,0,0,0,9.588-1.873,6.345,6.345,0,0,0-1.527-4.505c.978.059,1.794.174,2.658.3.848.12,1.809.256,3.069.356a16.3,16.3,0,0,0,1.929.117,22.458,22.458,0,0,0,4.251-.493c1.128-.205,2.407-.437,3.967-.574a18.235,18.235,0,0,0-4.177-6.538,15.364,15.364,0,0,0,5.313.973,28.706,28.706,0,0,0,7.56-1.358l.753-.2c.828-.115,1.876-.751,1.9-1.155a3.33,3.33,0,0,1-1.458-1.873,4.835,4.835,0,0,0-1.059-1.657,1.531,1.531,0,0,0-.779-.659c-.474-.25-.963-.507-.824-1.272a25.591,25.591,0,0,0,4.094.352c3.707,0,6.8-.969,11.106-2.447-.11-.238-.212-.467-.311-.689a8.352,8.352,0,0,0-2.33-3.452c-.568-.228-1.656-2.151-1.667-2.17a2.871,2.871,0,0,0,1.189.206,2.069,2.069,0,0,0,.995-.153,29.048,29.048,0,0,0,7.26-2.464,14.486,14.486,0,0,0,6.04-5.056c-1.749-1.355-3.61-2.645-5.371-2.9a5.008,5.008,0,0,1,2.023-.629,5.723,5.723,0,0,0,2.719-.961,30.283,30.283,0,0,0,7.623-4.932c1.268-1.017,2.579-2.067,4.024-3.038a4.474,4.474,0,0,0-1.1-.664c-.781-.376-1.519-.731-1.416-1.6,3.235-1.279,5.607-3.751,7.9-6.142l0,0c1.021-1.064,2.077-2.164,3.2-3.145.858-.941,1.744-1.867,2.6-2.763a64.745,64.745,0,0,0,6.281-7.262,24.078,24.078,0,0,0,4.058-9.075c-3.361.056-7.135,2.8-8.949,4.115l-.079.057-.213.154c-8.45,5.864-11.155,6.828-16.065,8.577-2,.712-4.264,1.519-7.426,2.822-.967-.326-.656-1.341-.381-2.236l0,0a6.88,6.88,0,0,0,.208-.777l.655-1.132a1.854,1.854,0,0,0-.951-.234,7.978,7.978,0,0,0-2.964.933,12.081,12.081,0,0,1-1.714.682c-.789.521-1.612,1.008-2.408,1.479a24.721,24.721,0,0,0-5.248,3.763c.033-.416.062-.809.089-1.189l0-.058a38.739,38.739,0,0,1,.472-4.264,19.805,19.805,0,0,0-13.494,7.508,22.8,22.8,0,0,1,.881-2.335c.7-1.672,1.363-3.248,1.12-4.964-.283-.017-.575-.026-.867-.026a16.81,16.81,0,0,0-8.141,2.233,20.5,20.5,0,0,0-6.337,5.541,9.733,9.733,0,0,0,1.134-4.656,9.635,9.635,0,0,1,1.234-4.847c-4.364,1.557-8.8,3.57-11.712,7.732-.409-.236-.389-.771-.37-1.288a1.989,1.989,0,0,0-.085-.887l-.771-4.068a6.011,6.011,0,0,1-3.056,1.662,6.514,6.514,0,0,0-2.872,1.457,21.782,21.782,0,0,0-11.339,6.739l-.378-.218a14.488,14.488,0,0,1,.909-3.355c.626-1.749,1.274-3.558.709-5.374-6.159,1.981-13.716,4.9-17.506,9.922.039-.647-.217-5.413-1.458-7.585a29.374,29.374,0,0,0-7.892,3.949,17.317,17.317,0,0,0-5.549,5.905,7.528,7.528,0,0,0-.668.923c-.1.163-.139.224-.218.224a.54.54,0,0,1-.157-.038,22.878,22.878,0,0,1-.326-2.627c-.179-2.108-.349-4.1-1.906-5.708-2.906,1.384-6.936,5.245-9.879,8.064a36.851,36.851,0,0,1-3.774,3.379l-.685-1.6a16.513,16.513,0,0,1-.908-2.7,10.879,10.879,0,0,0-1.068-2.771,16.288,16.288,0,0,1-1.23,1.088c-3.038,2.58-11.1,9.426-12.191,14.313-.045,0-.09,0-.131,0a.689.689,0,0,1-.587-.21c-.188-.251-.062-.684.05-1.066.086-.3.161-.551.083-.678a8.2,8.2,0,0,0-.33-2.776,4.5,4.5,0,0,1-.209-2.018,2.883,2.883,0,0,1,1.587-1.772,7.018,7.018,0,0,1,1.524-.854c.985-.462,2-.938,2.037-1.552.02-.35-.278-.708-.91-1.1a3.178,3.178,0,0,1-1.2-1.068c6.757-1.236,11.08-3.209,12.849-5.867a11.02,11.02,0,0,0-3.384-4.206,2.971,2.971,0,0,1-.475-.439,25.492,25.492,0,0,0,4.25-1.814,41.511,41.511,0,0,0,9.552-6.924c-.166-.759-1-1.254-1.808-1.733a4.344,4.344,0,0,1-1.272-.952.874.874,0,0,1,.74-.543.341.341,0,0,1,.072.006c2.637-1.784,7.17-5.335,11.023-8.634-.166-1.039-1.124-1.709-2.05-2.356a6.454,6.454,0,0,1-1.738-1.541c4.3-2.672,6.681-6.223,9.689-10.718q.426-.637.873-1.3l-2.858-1.85c.341-.5.709-1.069,1.231-1.913a405.269,405.269,0,0,1,85.272-30.255,407.781,407.781,0,0,1,45.614-7.912,413.543,413.543,0,0,1,47.2-2.7,414.039,414.039,0,0,1,41.665,2.1,408.566,408.566,0,0,1,40.461,6.175c13.129,2.687,26.268,6.065,39.052,10.041,12.641,3.932,25.238,8.542,37.44,13.7a407.533,407.533,0,0,1,69.219,37.571,410.4,410.4,0,0,1,60.309,49.759,410.406,410.406,0,0,1,49.759,60.309,407.525,407.525,0,0,1,37.571,69.22c5.16,12.2,9.77,24.8,13.7,37.439,3.977,12.785,7.355,25.924,10.042,39.053a408.508,408.508,0,0,1,6.175,40.461,414,414,0,0,1,2.1,41.665,414,414,0,0,1-2.1,41.664,408.518,408.518,0,0,1-6.175,40.461c-2.687,13.129-6.065,26.268-10.042,39.052-3.933,12.644-8.543,25.24-13.7,37.439a407.532,407.532,0,0,1-37.571,69.22,410.413,410.413,0,0,1-49.759,60.309,410.4,410.4,0,0,1-60.309,49.759A407.528,407.528,0,0,1-3415,844.124c-12.2,5.161-24.8,9.771-37.44,13.7-12.784,3.976-25.924,7.355-39.052,10.042a408.56,408.56,0,0,1-40.461,6.175A414.007,414.007,0,0,1-3573.62,876.148Z" transform="translate(3981.12 -61.148)" fill="#20cf8b" opacity="0.05"/>
</svg>
