<svg xmlns="http://www.w3.org/2000/svg" width="91.559" height="92.359" viewBox="0 0 91.559 92.359"><g transform="matrix(0.966, -0.259, 0.259, 0.966, -272.958, -250.7)"><path d="M226.451,332.032c-.1,1.544.748,2.682.78,4.177.26,1.3.1,2.779.423,4.063l-.258-.043c-.032.293.152.478.264.874.153.589.335,1.022.465,1.623l-.861-.081c.309.813.325,1.739.585,2.568.055.055.1.2.227.2-.437-.028-.878-.244-1.365-.26a5.576,5.576,0,0,0,.943,2.925c-.455-.13-.991-.276-1.479-.439a5.088,5.088,0,0,0,.7,2.974l.227.309c-.553.033-1.073-.536-1.674-.439a6.972,6.972,0,0,0,.618,2.194,3.625,3.625,0,0,0,.772,1.26l-.163-.02a5.289,5.289,0,0,0-1.536-.345,10.211,10.211,0,0,0,1.089,2.844,3.881,3.881,0,0,0,.309.471c-.488.032-1.008-.227-1.56-.081.52,1.121.634,2.405,1.447,3.4a3.5,3.5,0,0,0-1.593-.032c.439,1.073.959,2.275,1.511,3.381a.792.792,0,0,0,.471.358,7.773,7.773,0,0,0-1.837.032,8.514,8.514,0,0,0,1.219,2.389,6.309,6.309,0,0,0,.926,1.121l-1.755.049c.7,1.2,1.268,2.5,2.08,3.624l.26.162a12.2,12.2,0,0,0-1.755-.049,9.663,9.663,0,0,0,2.08,3.787,6.882,6.882,0,0,0-1.56.422c1.073,1.056,1.381,2.487,2.487,3.592-.341.244-.878.016-1.252.2a3.229,3.229,0,0,1,.715.975,5.068,5.068,0,0,1-.829.943c.683-1.609-.975-2.747-1.121-4.258-.374.049-.52.5-.829.634a1.6,1.6,0,0,0,0-1.365,21.837,21.837,0,0,0-.813-2.113l-.756.826c-.061-.115-.071-.074-.106-.16a10.147,10.147,0,0,0-1.333-3.234,3.067,3.067,0,0,0-.845.926,10.563,10.563,0,0,0-.52-1.317,6.019,6.019,0,0,0-1.26-2.05,3.04,3.04,0,0,0-.837,1.107,2.9,2.9,0,0,0-.219-.711,22.8,22.8,0,0,0-1.7-2.881,1.037,1.037,0,0,0-.719.656,12.149,12.149,0,0,0-1.962-2.444,1.172,1.172,0,0,0-.585.666c-.163-.325-.226-.559-.429-.985a8.037,8.037,0,0,0-1.1-1.55,3.453,3.453,0,0,0-.666,1.284,3.766,3.766,0,0,0-1.365-2.145c-.1-.128-.3-.232-.364-.2.032.26-.286.475-.335.736-.1.13.065.357-.162.439a5.109,5.109,0,0,0-1.755-2.259,1.856,1.856,0,0,0-.423.813,1.463,1.463,0,0,1-.2.471.638.638,0,0,0-.2-.358,3.941,3.941,0,0,0-2.454-1.446,2.438,2.438,0,0,0,.033,1.138c-.244-.114-.374-.488-.7-.618a12.283,12.283,0,0,0-2.373-1.138c-.049.211.1.52-.13.618a7.751,7.751,0,0,0-2.535-.927c-1.4-.306-2.763-.813-4.291-.309a3.575,3.575,0,0,0,1.56,1.089c2.42,1.141,2.247,1.357,4.031,2.73.049.244-.293.244-.471.309h-.244c0,.325.52.553.748.78a8.086,8.086,0,0,0,1.56.748,9.847,9.847,0,0,1-.943.423,3.7,3.7,0,0,0,2.47,1.479,3.4,3.4,0,0,0-1.365.357,3.47,3.47,0,0,0,2.682,1.756c-.666-.016-1.073.536-1.755.5a4.234,4.234,0,0,0,2.34,1.17c0,.146-.244.179-.309.276l-.585.5c.423.065.65.569,1.056.666a4.051,4.051,0,0,0,2.145,1.2v.081c-.5.228-1.17.13-1.56.553a6.733,6.733,0,0,0,3.234,1.9,3.751,3.751,0,0,0-1.089.943,4.5,4.5,0,0,0,2.844,1.251c.262.045.262-.006.276.065-.423.374-.975.569-1.138,1.138a20.986,20.986,0,0,0,3.121,1.138l-.2.26a9.963,9.963,0,0,0-.7.829c.146.016,2.649,1.073,3.738.731.163.244-.219.2-.26.276-.52.244-.579.778-1.158.443-.274-.091-.8-.7-.813-.1a.6.6,0,0,1-.061.293c-.553-.65-1.382-1.479-2.145-1.528a2.527,2.527,0,0,0-.39,1.056,6.858,6.858,0,0,0-2.7-1.414c-.179.163-.065.569-.146.748-.136,0-.162-.081-.162-.081-.569-.276-1.593-.683-2.422-.975-.26.211-.13.683-.276.975a6.674,6.674,0,0,0-2.926-.585l-.032.634c-.423-.033-1.006-.026-3.007-.081a21.967,21.967,0,0,0-3.605-.165l-.328.084c1.707,1.235,2.958,1.5,4.827,2.5a6.134,6.134,0,0,0,1.528.585,3.18,3.18,0,0,0-.39.455,3.724,3.724,0,0,0,1.983.634.991.991,0,0,1,.471.114c-.179.244-.435.42-.471.78a5.925,5.925,0,0,0,2.617.553c-.179.228-.439.634-.666.894.934.524,2.617.228,3.007.471-.276.2-.472.6-.731.845a6.08,6.08,0,0,0,3.153.471l.114.163-.731.813a10.322,10.322,0,0,0,3.462.309l-.081.244c-.341.39-.861.569-.975,1.121a23.25,23.25,0,0,1,3.559-.146l.114.081a2.43,2.43,0,0,0-.748,1.2,12.71,12.71,0,0,1,3.592-.422c-.033.357-.439.666-.78.845.374.422,1.121.2,1.641.2a9.036,9.036,0,0,0,2.926-.78,3.24,3.24,0,0,1-.163.748c1.219.146,2.438-.715,3.641-.617a14.741,14.741,0,0,1-3.316,2.064.744.744,0,0,0,.341.341c-.683.861-1.706,1.219-2.259,2.145l.276.2a5.547,5.547,0,0,0-.975,3.056,11.215,11.215,0,0,1,2.373-1.528c.878-.481,1.731-.806,2.645-1.325a25.007,25.007,0,0,0,4.23-2.885,21.556,21.556,0,0,0,1.95-1.755c.044,1.861.076,5.128.094,5.656s-.084,2.179-.093,4.473l.113,2.629h1.284c-.033-1.446-.046-3.113-.059-4.427-.068-1.436.073-2.8.027-4.431-.117-1.17.1-2.281-.081-3.478a25.009,25.009,0,0,1,2.907,1.323,35.716,35.716,0,0,0,4.309,1.489c1.092.282,2.135.688,3.381.986l1.186.3a1.771,1.771,0,0,0-.552-.7,21.324,21.324,0,0,0-2.923-2.5c.095-.23.3-.257.387-.509a13.206,13.206,0,0,1-1.869-.894c.634.114,1.316.357,2.032.423a1.894,1.894,0,0,0-.162-.5c1.349-.033,2.731.406,4.1.081-.176-.344-.39-.341-.471-.748a2.757,2.757,0,0,1,1.138.2,10.556,10.556,0,0,0,2.682-.065c-.293-.423-1.04-.8-.975-1.3,1.235.618,2.731-.13,3.9-.114.032.049.341-.114.553-.114-.13-.52-.91-.666-1.056-1.252.455-.211,1.089.1,1.609-.114a7.333,7.333,0,0,1,2.178-.813c-.309-.309-.666-.683-.975-.975.016-.049-.016-.065-.032-.081,1.381.146,2.357-.861,3.706-.943a1.379,1.379,0,0,0-.573-.7l-.256-.228c.569-.276,1.121-.244,1.641-.634a3.035,3.035,0,0,0,1.333-.5c-.227-.276-.553-.293-.715-.666a5.011,5.011,0,0,0,2.276-1.251c-.2-.309-.6-.293-.829-.618a11.273,11.273,0,0,0,2.354-1.49c.6-.393.989-.556,1.547-.883a14.519,14.519,0,0,1,1.641-.666,11.479,11.479,0,0,1,1.333-.5c0-.2-.431-.211-.593-.276a23.92,23.92,0,0,0-3.576-.163,11.814,11.814,0,0,1-1.227.114.5.5,0,0,0,.163-.423,10.1,10.1,0,0,0-2.7.666c-.118-.175.033-.309-.032-.5a7.058,7.058,0,0,0-2.649,1.04c-.162-.228.146-.358.033-.618a7.57,7.57,0,0,0-3.511,1.56c-.114-.179-.065-.439-.276-.585a18.625,18.625,0,0,0-3.291,1.674,27.554,27.554,0,0,0-3.145,2.064,2.636,2.636,0,0,0-.975-.731,9.1,9.1,0,0,0,1.414-.553c1.02-.75,1.528-1.694,2.682-1.511-.219-.488-.536-.471-.813-.715.441-.341.746-.341,1.333-.78.743-.557,1.43-.975,1.983-1.479-.26-.016-.471-.292-.618-.423a10.108,10.108,0,0,0,2.1-1.414l-.309-.032c.52-.211.991-.7,1.593-.78-.5-.325-1.219-.423-1.674-.894,1.219-.016,2.259-1.186,3.007-2.227a.76.76,0,0,1,.471-.309l-.049-.049.585-.146a10.889,10.889,0,0,0-1.4-.829c1.2-.1,1.95-1.121,2.844-1.869.114,0,.2-.081.276-.114a3.039,3.039,0,0,0-1.333-.666l-.146-.146c1.024-.341,1.69-1.447,2.568-1.951-.423-.292-.926-.39-1.365-.666a4.914,4.914,0,0,0,2.113-2.779,4.233,4.233,0,0,0-.943-.26,11.439,11.439,0,0,0,1.333-2.584,1.536,1.536,0,0,1-.634-.2,11.238,11.238,0,0,1,1.3-2.1l-.358-.13a13.621,13.621,0,0,0,.813-1.316c-.065-.033-.422-.065-.227-.276a43.673,43.673,0,0,0,2.535-5.884c-1.56.114-2.113,1.934-3.348,2.731a4.868,4.868,0,0,0-1.333,1.674c-.114-.065-.163-.26-.309-.195-.666.78-1.479,1.463-2.113,2.292l-.228-.455a6.444,6.444,0,0,0-1.869,2.1l-.276-.5a12.374,12.374,0,0,0-2.34,2.178,4.042,4.042,0,0,0-.39-.845,10.207,10.207,0,0,0-1.836,2.454c-.211-.081-.358-.455-.618-.585-.423,1.04-1.56,1.853-1.723,3.039l-.081.081a2.441,2.441,0,0,0-.813-.861,7.864,7.864,0,0,0-1.837,3.738l-.081.081-1.056-1.008c-.439,1.089-.894,2.243-1.317,3.4-.049.146.1.406-.049.536-.39-.114-.683-.552-.975-.861-.341,1.17-1.089,2.292-.845,3.559-.341-.049-.341-.536-.439-.829a23.044,23.044,0,0,0-1.252,3.511.544.544,0,0,1-.114-.422c-.244.292-.455.6-.894.5.618-.91.959-2.048,1.528-3.039-.081-.146.195-.228.114-.423a1.766,1.766,0,0,1-1.089.065c.016-.293.488-.406.585-.731a20.445,20.445,0,0,0,.894-2.925c-.39.065-.748.292-1.138.2a3.716,3.716,0,0,0,.829-1.447c.1-.894.39-1.772.5-2.617-.439,0-.878.146-1.252.162,1.3-1.04.6-3.023,1.008-4.4-.325-.1-.569.163-.845.065.78-1.024.439-2.519.618-3.706a10.7,10.7,0,0,1-1.089.39,4.228,4.228,0,0,0,.39-.813c.244-.91-.146-1.772-.114-2.7-.406-.016-.78.325-1.17.471a1.6,1.6,0,0,1,.146-.39,4.937,4.937,0,0,0-.309-3.072,2.646,2.646,0,0,1-1.008.536,7.851,7.851,0,0,0-.39-3.4c-.293.244-.666.309-.975.52a13.144,13.144,0,0,0-1.056-3.283l-.39.2a4.873,4.873,0,0,0-.309-1.788,3.6,3.6,0,0,1-.715.423c-.13-.227-.032-.471-.2-.666.1-.114-.163-.325-.146-.536-.2-.146-.26-.471-.39-.715l-.309.244a2.139,2.139,0,0,1-.162-.634c-.179-.618-.991-.878-.975-1.593l-.276.081c-.715-1.56-1.853-3.039-2.535-4.486A20.109,20.109,0,0,0,226.564,332l-.114.032Z" fill="none" stroke="#20cf8b" stroke-width="1"/></g></svg>