<svg xmlns="http://www.w3.org/2000/svg" width="32" height="32" viewBox="0 0 32 32"><g transform="translate(-1100 -391)"><rect width="32" height="32" transform="translate(1100 391)" fill="rgba(255,255,255,0)"/><path d="M19.34,4.786a4,4,0,0,0-5.255-1.3,3.911,3.911,0,0,0-1.55,1.521L2.346,22.521l-.091.236a3.878,3.878,0,0,0,2.208,4.96l.312.109A4.109,4.109,0,0,0,5.749,28l.117,0,.044,0H26.2l.247-.02a3.922,3.922,0,0,0,3.563-4.071,3.843,3.843,0,0,0-.289-1.268L19.468,5ZM15.1,5.3a1.88,1.88,0,0,1,2.534.713l10.2,17.537.03.134a2.593,2.593,0,0,1,.045.34,1.843,1.843,0,0,1-1.766,1.917H5.91l-.043,0-.211-.023a1.931,1.931,0,0,1-.4-.111,1.818,1.818,0,0,1-1.021-2.382l10.136-17.4.115-.18A1.828,1.828,0,0,1,15.1,5.3Zm-.147,15.964a1.049,1.049,0,0,1,1.051-1.04,1.036,1.036,0,0,1,1.051,1.025v.015a1.051,1.051,0,0,1-2.1,0Zm2.078-8.36a1.052,1.052,0,0,0-2.092.14v4.266l.01.14a1.052,1.052,0,0,0,2.092-.14V13.04Z" transform="translate(1099.981 391.5)" fill="#fff" fill-rule="evenodd"/></g></svg>