<svg xmlns="http://www.w3.org/2000/svg" width="34" height="34" viewBox="0 0 34 34">
  <g id="Group_150" data-name="Group 150" transform="translate(-628 -3020)">
    <rect id="Rectangle_217" data-name="Rectangle 217" width="34" height="34" rx="4" transform="translate(628 3020)" fill="rgba(255,255,255,0)"/>
    <path id="raindrops" d="M14.711,11c0-5.235-5.037-8.609-5.251-8.744a1.549,1.549,0,0,0-1.709,0C7.537,2.406,2.5,5.825,2.5,11a6.053,6.053,0,0,0,6.105,6A6.053,6.053,0,0,0,14.711,11ZM8.605,14a3.027,3.027,0,0,1-3.053-3A8.12,8.12,0,0,1,8.605,5.42,8.046,8.046,0,0,1,11.658,11,3.027,3.027,0,0,1,8.605,14ZM26.249,2.256a1.549,1.549,0,0,0-1.709,0c-.214.15-5.251,3.57-5.251,8.744A6.106,6.106,0,0,0,31.5,11C31.5,5.765,26.463,2.391,26.249,2.256ZM25.395,14a3.027,3.027,0,0,1-3.053-3,8.12,8.12,0,0,1,3.053-5.58A8.046,8.046,0,0,1,28.447,11a3.027,3.027,0,0,1-3.053,3Zm-6.777,3.255a1.549,1.549,0,0,0-1.709,0c-.214.15-5.251,3.57-5.251,8.744a6.106,6.106,0,0,0,12.211,0C23.868,20.764,18.832,17.39,18.618,17.255ZM17.763,29a3.027,3.027,0,0,1-3.053-3,8.12,8.12,0,0,1,3.053-5.58A8.046,8.046,0,0,1,20.816,26,3.027,3.027,0,0,1,17.763,29Z" transform="translate(628 3020.001)" fill="#fff"/>
  </g>
</svg>
