<svg xmlns="http://www.w3.org/2000/svg" width="34" height="34" viewBox="0 0 34 34">
  <g id="Group_155" data-name="Group 155" transform="translate(-1518 -3020)">
    <rect id="Rectangle_222" data-name="Rectangle 222" width="34" height="34" rx="4" transform="translate(1518 3020)" fill="rgba(242,242,242,0)"/>
    <path id="dropbox" d="M31.408,16.705l-4.874-3.793,4.889-3.838a1.5,1.5,0,0,0,.57-1.289,1.589,1.589,0,0,0-.75-1.2L23.536,2.194a1.5,1.5,0,0,0-1.725.18L17,6.571l-4.814-4.2a1.5,1.5,0,0,0-1.725-.18L2.751,6.586A1.589,1.589,0,0,0,2,7.786a1.5,1.5,0,0,0,.57,1.289L7.46,12.912,2.586,16.645a1.5,1.5,0,0,0,.165,2.488l5.114,3v3.7a1.5,1.5,0,0,0,.72,1.274L16.218,31.8a1.5,1.5,0,0,0,1.5,0l7.633-4.692a1.5,1.5,0,0,0,.72-1.274V22.117l5.114-2.923a1.541,1.541,0,0,0,.225-2.488ZM23,5.327l4.844,2.758-3.824,3-4.5-2.758ZM21.361,13,17,16l-4.364-3L17,10.319ZM6.185,8.085,11,5.327l3.464,3-4.5,2.758Zm0,9.579,3.749-2.878,4.5,3.118L11.1,20.5Zm16.93,7.285L17,28.728,10.864,24.95v-1.2a1.5,1.5,0,0,0,1.275-.27L17,19.733l4.859,3.748a2.017,2.017,0,0,0,1.275.315Zm-.225-4.5L19.547,17.9l4.5-3.118,3.764,2.908Z" transform="translate(1518.003 3019.999)" fill="#111"/>
  </g>
</svg>
