<svg xmlns="http://www.w3.org/2000/svg" width="34" height="34" viewBox="0 0 34 34">
  <g id="Group_151" data-name="Group 151" transform="translate(-806 -3020)">
    <rect id="Rectangle_218" data-name="Rectangle 218" width="34" height="34" rx="4" transform="translate(806 3020)" fill="rgba(242,242,242,0)"/>
    <path id="cell" d="M31.206,6.092,24.478,2.238a1.493,1.493,0,0,0-1.5,0L16.985,5.67,10.991,2.238a1.493,1.493,0,0,0-1.5,0L2.764,6.092A1.507,1.507,0,0,0,2,7.4v7.708a1.507,1.507,0,0,0,.764,1.31l5.994,3.417v6.835a1.507,1.507,0,0,0,.764,1.31l6.743,3.854a1.493,1.493,0,0,0,1.5,0l6.713-3.854a1.507,1.507,0,0,0,.764-1.31V19.836l5.994-3.417A1.507,1.507,0,0,0,32,15.109V7.4a1.506,1.506,0,0,0-.794-1.31ZM5,14.236V8.214L10.242,5.2l5.245,3.011v6.022l-5.245,3.011ZM22.23,25.8l-5.245,3.011L11.74,25.8V19.776l5.245-3.011,5.245,3.011Zm6.743-11.562-5.245,3.011-5.245-3.011V8.214L23.728,5.2l5.245,3.011Z" transform="translate(806 3019.964)" fill="#111"/>
  </g>
</svg>
