<svg xmlns="http://www.w3.org/2000/svg" width="34" height="34" viewBox="0 0 34 34">
  <g id="Group_152" data-name="Group 152" transform="translate(-1024 -3034)">
    <rect id="Rectangle_236" data-name="Rectangle 236" width="34" height="34" transform="translate(1024 3034)" fill="rgba(255,255,255,0)"/>
    <path id="dialpad" d="M9.558,2.25H3.4A1.169,1.169,0,0,0,2.25,3.4V9.558A1.169,1.169,0,0,0,3.4,10.712H9.558a1.169,1.169,0,0,0,1.154-1.154V3.4A1.169,1.169,0,0,0,9.558,2.25ZM8.4,8.4H4.558V4.558H8.4ZM31.1,2.25H24.942A1.169,1.169,0,0,0,23.788,3.4V9.558a1.169,1.169,0,0,0,1.154,1.154H31.1A1.169,1.169,0,0,0,32.25,9.558V3.4A1.169,1.169,0,0,0,31.1,2.25ZM29.942,8.4H26.1V4.558h3.846ZM20.327,2.25H14.173A1.169,1.169,0,0,0,13.019,3.4V9.558a1.169,1.169,0,0,0,1.154,1.154h6.154a1.169,1.169,0,0,0,1.154-1.154V3.4A1.169,1.169,0,0,0,20.327,2.25ZM19.173,8.4H15.327V4.558h3.846ZM9.558,13.019H3.4A1.169,1.169,0,0,0,2.25,14.173v6.154A1.169,1.169,0,0,0,3.4,21.481H9.558a1.169,1.169,0,0,0,1.154-1.154V14.173a1.169,1.169,0,0,0-1.154-1.154ZM8.4,19.173H4.558V15.327H8.4Zm11.923-6.154H14.173a1.169,1.169,0,0,0-1.154,1.154v6.154a1.169,1.169,0,0,0,1.154,1.154h6.154a1.169,1.169,0,0,0,1.154-1.154V14.173a1.169,1.169,0,0,0-1.154-1.154Zm-1.154,6.154H15.327V15.327h3.846ZM31.1,13.019H24.942a1.169,1.169,0,0,0-1.154,1.154v6.154a1.169,1.169,0,0,0,1.154,1.154H31.1a1.169,1.169,0,0,0,1.154-1.154V14.173A1.169,1.169,0,0,0,31.1,13.019Zm-1.154,6.154H26.1V15.327h3.846Zm-9.615,4.615H14.173a1.169,1.169,0,0,0-1.154,1.154V31.1a1.169,1.169,0,0,0,1.154,1.154h6.154A1.169,1.169,0,0,0,21.481,31.1V24.942a1.169,1.169,0,0,0-1.154-1.154Zm-1.154,6.154H15.327V26.1h3.846Z" transform="translate(1023.75 3033.75)" fill="#111"/>
  </g>
</svg>
