<svg xmlns="http://www.w3.org/2000/svg" width="95" height="43" viewBox="0 0 95 43">
  <g id="Group_10" data-name="Group 10" transform="translate(-255.132 -626.075)">
    <g id="Group_1" data-name="Group 1" transform="translate(287.936 653.878)">
      <path id="Path_1" data-name="Path 1" d="M411.854,759.173" transform="translate(-411.854 -759.173)" fill="#e2e2e2"/>
    </g>
    <g id="Group_2" data-name="Group 2" transform="translate(316.158 635.154)">
      <path id="Path_2" data-name="Path 2" d="M571.561,728.939a12.438,12.438,0,0,0-12.438,12.419,12.438,12.438,0,0,0-12.438-12.419h0a12.438,12.438,0,0,0,12.438,12.438h0a12.438,12.438,0,0,0,12.438-12.438Z" transform="translate(-546.685 -716.53)" fill="#14cf8b"/>
      <path id="Path_3" data-name="Path 3" d="M554.854,694.8a5.385,5.385,0,0,0-.978,2.328h-7.043a12.367,12.367,0,0,1,3.044-7.305Z" transform="translate(-546.802 -685.602)" fill="#fa0"/>
      <path id="Path_4" data-name="Path 4" d="M567.141,672.672a12.38,12.38,0,0,1,7.3-3.017v7.04a5.384,5.384,0,0,0-2.324.957Z" transform="translate(-562.859 -669.655)" fill="#fa0"/>
      <path id="Path_5" data-name="Path 5" d="M617.483,672.673l-4.979,4.979a5.383,5.383,0,0,0-2.324-.957v-7.04A12.37,12.37,0,0,1,617.483,672.673Z" transform="translate(-596.89 -669.655)" fill="#fa0"/>
      <path id="Path_6" data-name="Path 6" d="M635.084,697.128h-7.043a5.4,5.4,0,0,0-.977-2.328l4.977-4.977A12.376,12.376,0,0,1,635.084,697.128Z" transform="translate(-610.24 -685.602)" fill="#fa0"/>
      <path id="Path_7" data-name="Path 7" d="M606.109,788.273" transform="translate(-593.671 -763.445)" fill="#bc5e5e"/>
    </g>
    <g id="Group_3" data-name="Group 3" transform="translate(304.007 640.021)">
      <path id="Path_8" data-name="Path 8" d="M488.672,692.842v.432q0,.543-.037,1.078.043-.543.043-1.1C488.678,693.117,488.676,692.98,488.672,692.842Z" transform="translate(-488.635 -692.842)" fill="#e2e2e2"/>
    </g>
    <g id="Group_4" data-name="Group 4" transform="translate(255.132 626.076)">
      <path id="Path_9" data-name="Path 9" d="M286.746,648.6v5.342H255.132v-2.671a22.782,22.782,0,0,1,6.208-15.7c.166-.178.339-.354.512-.527l.083-.085a17.566,17.566,0,0,0,3.384-4.732,17.282,17.282,0,0,0,1.411-4.147h5.432a22.691,22.691,0,0,1-3.8,9.491,23.225,23.225,0,0,1-2.648,3.165l-.083.083a17.456,17.456,0,0,0-4.955,9.777Z" transform="translate(-255.132 -626.08)" fill="#fff"/>
    </g>
    <g id="Group_5" data-name="Group 5" transform="translate(275.276 626.075)">
      <path id="Path_10" data-name="Path 10" d="M418.914,663.707a21.534,21.534,0,0,1-7.391,4.255,21.3,21.3,0,0,1-5.6,1.077H362.832v-5.445a16.042,16.042,0,0,1,2.605-8.806,16.275,16.275,0,0,1,2.148-2.643L370,649.739l1.609-1.606a10.858,10.858,0,0,0,2.448-3.726,10.74,10.74,0,0,0,.717-3.244c.02-.24.029-.485.029-.729,0-.1,0-.208-.005-.309a9.044,9.044,0,0,0-18.082.309v13.444h-2.67a2.671,2.671,0,0,1,2.67,2.53V663.7h-5.343V640.433a14.27,14.27,0,0,1,3.2-9.025,14.61,14.61,0,0,1,2.139-2.135,14.385,14.385,0,0,1,18.082-.005,14.529,14.529,0,0,1,2.145,2.14,14.267,14.267,0,0,1,3.2,8.613v.431c0,.361-.011.719-.036,1.077,0,0,0,0,0,.007a16.03,16.03,0,0,1-2.89,8.2,16.449,16.449,0,0,1-1.826,2.165l-4.02,4.013a10.777,10.777,0,0,0-3.187,7.678v.113Z" transform="translate(-351.369 -626.075)" fill="#fff"/>
    </g>
    <g id="Group_6" data-name="Group 6" transform="translate(307.06 626.088)">
      <path id="Path_11" data-name="Path 11" d="M524.757,626.135a21.475,21.475,0,0,0-17.6,33.87h7.2a16.189,16.189,0,1,1,13.395,3.506h0a16.469,16.469,0,0,1-1.942.243c-.347.023-.7.034-1.05.034s-.7-.011-1.052-.034H510.533a21.48,21.48,0,0,0,12.991,5.332c.407.023.819.036,1.233.036s.824-.013,1.231-.036a21.288,21.288,0,0,0,5.6-1.076,21.487,21.487,0,0,0-6.834-41.875Z" transform="translate(-503.221 -626.135)" fill="#fff"/>
    </g>
    <path id="Path_12" data-name="Path 12" d="M522.035,788.276" transform="translate(-211.037 -128.319)" fill="#e2e2e2"/>
  </g>
</svg>
