<svg xmlns="http://www.w3.org/2000/svg" width="34" height="34" viewBox="0 0 34 34">
  <g id="Group_154" data-name="Group 154" transform="translate(-1384 -3042)">
    <rect id="Rectangle_238" data-name="Rectangle 238" width="34" height="34" transform="translate(1384 3042)" fill="rgba(255,255,255,0)"/>
    <path id="desert" d="M26,2a6,6,0,1,0,6,6A6,6,0,0,0,26,2Zm0,9a3,3,0,1,1,3-3A3,3,0,0,1,26,11ZM21.5,29h-3V26a1.5,1.5,0,0,0-3,0v3h-3V23.93l5.175-2.595A1.5,1.5,0,0,0,18.5,20V14a1.5,1.5,0,0,0-3,0v5.07l-3,1.5V11a1.5,1.5,0,0,0-3,0V23.57l-3-1.5V18.5a1.5,1.5,0,1,0-3,0V23a1.5,1.5,0,0,0,.825,1.335L9.5,26.93V29h-6a1.5,1.5,0,0,0,0,3h18a1.5,1.5,0,0,0,0-3Z" transform="translate(1384 3042)" fill="#111"/>
  </g>
</svg>
