<svg id="Group_185" data-name="Group 185" xmlns="http://www.w3.org/2000/svg" width="44" height="44" viewBox="0 0 44 44">
  <rect id="Rectangle_243" data-name="Rectangle 243" width="44" height="44" fill="rgba(255,255,255,0)"/>
  <path id="Arrow_-_Right_Circle" data-name="Arrow - Right Circle" d="M42,22A20,20,0,1,1,22,2,20,20,0,0,1,42,22Zm-3,0A17,17,0,1,0,22,39,17,17,0,0,0,39,22ZM26.089,28.047a1.5,1.5,0,0,1-2.262,1.958l-6.972-6.942-.146-.168a1.5,1.5,0,0,1,.146-1.958L23.826,14l.169-.145A1.5,1.5,0,0,1,25.948,14l.145.169a1.5,1.5,0,0,1-.149,1.953L20.04,22l5.9,5.877Z" fill="#fff" fill-rule="evenodd"/>
</svg>
