<svg xmlns="http://www.w3.org/2000/svg" width="24" height="24" viewBox="0 0 24 24">
  <g id="Group_232" data-name="Group 232" transform="translate(-177 -746)">
    <rect id="Rectangle_268" data-name="Rectangle 268" width="24" height="24" transform="translate(177 746)" fill="rgba(255,255,255,0)"/>
    <path id="Category" d="M8.013,2H4.976A2.986,2.986,0,0,0,2,5V8.06a2.986,2.986,0,0,0,2.976,3H8.013a2.986,2.986,0,0,0,2.976-3V5A2.986,2.986,0,0,0,8.013,2ZM4.976,3.4H8.013A1.59,1.59,0,0,1,9.594,5V8.06a1.591,1.591,0,0,1-1.58,1.6H4.976A1.591,1.591,0,0,1,3.4,8.06V5A1.59,1.59,0,0,1,4.976,3.4ZM19.025,2H15.986a2.986,2.986,0,0,0-2.976,3V8.06a2.986,2.986,0,0,0,2.976,3h3.039A2.986,2.986,0,0,0,22,8.06V5A2.985,2.985,0,0,0,19.025,2ZM15.986,3.4h3.039A1.59,1.59,0,0,1,20.6,5V8.06a1.591,1.591,0,0,1-1.58,1.6H15.986a1.591,1.591,0,0,1-1.58-1.6V5A1.59,1.59,0,0,1,15.986,3.4ZM4.976,12.945H8.013a2.986,2.986,0,0,1,2.976,3V19a2.986,2.986,0,0,1-2.976,3H4.976A2.986,2.986,0,0,1,2,19V15.941A2.986,2.986,0,0,1,4.976,12.945Zm3.038,1.4H4.976a1.591,1.591,0,0,0-1.58,1.6V19a1.59,1.59,0,0,0,1.58,1.6H8.013A1.59,1.59,0,0,0,9.594,19V15.941A1.591,1.591,0,0,0,8.013,14.34Zm11.012-1.4H15.986a2.986,2.986,0,0,0-2.976,3V19a2.986,2.986,0,0,0,2.976,3h3.039A2.985,2.985,0,0,0,22,19V15.941A2.986,2.986,0,0,0,19.025,12.945Zm-3.039,1.4h3.039a1.59,1.59,0,0,1,1.58,1.6V19a1.59,1.59,0,0,1-1.58,1.6H15.986a1.59,1.59,0,0,1-1.58-1.6V15.941A1.591,1.591,0,0,1,15.986,14.34Z" transform="translate(177 746)" fill="#111" fill-rule="evenodd"/>
  </g>
</svg>
