<svg xmlns="http://www.w3.org/2000/svg" width="34" height="34" viewBox="0 0 34 34">
  <g id="Group_153" data-name="Group 153" transform="translate(-1193 -3035)">
    <rect id="Rectangle_237" data-name="Rectangle 237" width="34" height="34" transform="translate(1193 3035)" fill="rgba(255,255,255,0)"/>
    <path id="flask" d="M27.941,25.235l-7.517-13.14V5H21.9a1.5,1.5,0,0,0,0-3H10.128a1.5,1.5,0,0,0,0,3H11.6v7.095L4.082,25.235a4.577,4.577,0,0,0-.014,4.506A4.4,4.4,0,0,0,7.892,32H24.073A4.4,4.4,0,0,0,27.9,29.741a4.577,4.577,0,0,0-.014-4.506Zm-13.607-12a1.522,1.522,0,0,0,.206-.735V5h2.942v7.5a1.522,1.522,0,0,0,.206.75l1.265,2.25H13.07Zm11.062,15a1.466,1.466,0,0,1-1.265.75H7.951a1.466,1.466,0,0,1-1.265-.75,1.526,1.526,0,0,1,0-1.5L11.349,18.5h9.341L25.4,26.75a1.526,1.526,0,0,1,0,1.5ZM13.07,21.5A1.5,1.5,0,1,0,14.541,23,1.486,1.486,0,0,0,13.07,21.5ZM18.954,23a1.5,1.5,0,1,0,1.471,1.5A1.486,1.486,0,0,0,18.954,23Z" transform="translate(1194.018 3035)" fill="#111"/>
  </g>
</svg>
