<svg xmlns="http://www.w3.org/2000/svg" width="34" height="34" viewBox="0 0 34 34">
  <g id="Group_149" data-name="Group 149" transform="translate(-478 -3037)">
    <rect id="Rectangle_235" data-name="Rectangle 235" width="34" height="34" transform="translate(478 3037)" fill="rgba(255,255,255,0)"/>
    <path id="Path_316" data-name="Path 316" d="M8,3a10.5,10.5,0,0,1,10.369,8.843A9.718,9.718,0,0,1,25.25,9H32v3.75a9.75,9.75,0,0,1-9.75,9.75H18.5V30h-3V18h-3A10.5,10.5,0,0,1,2,7.5V3Zm21,9H25.25a6.751,6.751,0,0,0-6.75,6.75v.75h3.75A6.751,6.751,0,0,0,29,12.75ZM8,6H5V7.5A7.5,7.5,0,0,0,12.5,15h3V13.5A7.5,7.5,0,0,0,8,6Z" transform="translate(478 3037.5)" fill="#111"/>
  </g>
</svg>
