<svg xmlns="http://www.w3.org/2000/svg" width="32" height="32" viewBox="0 0 32 32"><g transform="translate(-1489 -347)"><rect width="32" height="32" transform="translate(1489 347)" fill="rgba(17,17,17,0)"/><path d="M14.632,2.142,5.253,5.318A2.532,2.532,0,0,0,3.5,7.7v9.293a11.468,11.468,0,0,0,2.978,7.681,11.985,11.985,0,0,0,3.445,2.562L15,29.877a1.1,1.1,0,0,0,1.015,0l5.07-2.639a12,12,0,0,0,3.441-2.563A11.465,11.465,0,0,0,27.5,17V7.7a2.532,2.532,0,0,0-1.754-2.383L16.369,2.143A2.716,2.716,0,0,0,14.632,2.142ZM15.66,4.085l9.379,3.176a.467.467,0,0,1,.324.44V17a9.45,9.45,0,0,1-2.45,6.327l-.28.294a10.416,10.416,0,0,1-2.563,1.806L15.507,27.8l-4.569-2.375a9.92,9.92,0,0,1-2.846-2.1,9.452,9.452,0,0,1-2.455-6.331V7.7a.466.466,0,0,1,.323-.44L15.34,4.085A.5.5,0,0,1,15.66,4.085ZM20.8,12.136a1.1,1.1,0,0,0-1.511,0l-4.8,4.623-1.939-1.87-.12-.1a1.1,1.1,0,0,0-1.391.1,1,1,0,0,0,0,1.456l2.7,2.6.12.1a1.1,1.1,0,0,0,1.392-.1L20.8,13.592l.1-.115A1,1,0,0,0,20.8,12.136Z" transform="translate(1489.5 347)" fill="#fff" fill-rule="evenodd"/></g></svg>