<svg xmlns="http://www.w3.org/2000/svg" width="25.456" height="25.456" viewBox="0 0 25.456 25.456"><g transform="translate(-1028.133 -1339.26) rotate(45)"><rect width="18" height="18" transform="translate(1683 211)" fill="rgba(255,255,255,0)"/><path d="M14.9,7.886a1.19,1.19,0,0,1,1.179,1.028l.011.161V13.7h4.626a1.19,1.19,0,0,1,.161,2.368l-.161.011H16.087V20.7a1.19,1.19,0,0,1-2.368.161l-.011-.161V16.075H9.081a1.19,1.19,0,0,1-.161-2.368l.161-.011h4.626V9.075A1.19,1.19,0,0,1,14.9,7.886Z" transform="translate(1677.109 205.114)" fill="#444" fill-rule="evenodd"/></g></svg>