<svg xmlns="http://www.w3.org/2000/svg" width="44" height="44" viewBox="0 0 44 44"><g transform="translate(-1483 -512)"><rect width="44" height="44" transform="translate(1483 512)" fill="rgba(255,255,255,0)"/><path d="M12.858,3.381a1.546,1.546,0,0,0-2,.147L2.53,11.8l-.148.17a1.5,1.5,0,0,0,.153,1.971l.172.146A1.546,1.546,0,0,0,4.7,13.935l5.711-5.672V32.089l.014.205a1.533,1.533,0,0,0,3.05-.205V8.263l5.711,5.672.172.147a1.546,1.546,0,0,0,1.995-.142,1.5,1.5,0,0,0,0-2.141L13.03,3.528l-.011-.009a1.536,1.536,0,0,0-.149-.127ZM33.74,9.87a1.533,1.533,0,0,0-3.05.205V33.9L24.979,28.23l-.171-.147a1.546,1.546,0,0,0-1.995.142,1.5,1.5,0,0,0-.005,2.141l8.329,8.27.011.009a1.505,1.505,0,0,0,.149.127l.013.011a1.546,1.546,0,0,0,2-.147l8.329-8.27.148-.17a1.5,1.5,0,0,0-.153-1.971,1.544,1.544,0,0,0-2.166,0L33.754,33.9V10.076Z" transform="translate(1526.083 511.917) rotate(90)" fill="#fff" fill-rule="evenodd"/></g></svg>