<svg xmlns="http://www.w3.org/2000/svg" width="44" height="44" viewBox="0 0 44 44"><g transform="translate(-392 -512)"><rect width="44" height="44" transform="translate(392 512)" fill="rgba(255,255,255,0)"/><path d="M13.624,2.5H30.376A11.758,11.758,0,0,1,42,14.387V28.612A11.758,11.758,0,0,1,30.376,40.5H13.624A11.758,11.758,0,0,1,2,28.612V14.387A11.758,11.758,0,0,1,13.624,2.5ZM39.092,14.387v.031H32.7l-.366.01A6.826,6.826,0,0,0,32.7,28.059h6.393v.553a8.817,8.817,0,0,1-8.717,8.914H13.624a8.817,8.817,0,0,1-8.717-8.914V14.387a8.817,8.817,0,0,1,8.717-8.914H30.376A8.817,8.817,0,0,1,39.092,14.387Zm-6.391,3h6.391v7.7H32.7l-.294-.012a3.852,3.852,0,0,1,.295-7.683Zm2.34,3.725a1.47,1.47,0,0,0-1.454-1.486h-.6l-.2.014a1.489,1.489,0,0,0,.2,2.959h.6l.2-.014A1.476,1.476,0,0,0,35.042,21.117Zm-10.88-8.135a1.47,1.47,0,0,0-1.454-1.487H12.244l-.2.014a1.489,1.489,0,0,0,.2,2.959H22.708l.2-.014A1.476,1.476,0,0,0,24.161,12.981Z" transform="translate(392 512.5)" fill="#fff" fill-rule="evenodd"/></g></svg>