<svg xmlns="http://www.w3.org/2000/svg" width="44" height="44" viewBox="0 0 44 44"><g transform="translate(-392 -512)"><rect width="44" height="44" transform="translate(392 512)" fill="rgba(255,255,255,0)"/><path d="M13.624,2.5H30.376A11.758,11.758,0,0,1,42,14.387V28.612A11.758,11.758,0,0,1,30.376,40.5H13.624A11.758,11.758,0,0,1,2,28.612V14.387A11.758,11.758,0,0,1,13.624,2.5ZM39.092,14.387V28.612a8.817,8.817,0,0,1-8.717,8.914H13.624a8.817,8.817,0,0,1-8.717-8.914V14.387A9.272,9.272,0,0,1,6.418,9.369a8.528,8.528,0,0,1,7.206-3.9H30.376A8.817,8.817,0,0,1,39.092,14.387Zm0,3v0Zm-5.931,12.59a1.47,1.47,0,0,0-1.454-1.487H23.957l-.2.014a1.489,1.489,0,0,0,.2,2.959h7.751l.2-.014A1.476,1.476,0,0,0,33.161,29.981Z" transform="translate(392 512.5)" fill="#fff" fill-rule="evenodd"/><rect width="28" height="3" rx="1.5" transform="translate(400 526)" fill="#fff"/></g></svg>